HIERARCHY
ROOT hip
{
	OFFSET 0.000000 0.000000 0.000000 
	CHANNELS 6 Xposition Yposition Zposition Xrotation Zrotation Yrotation
	JOINT abdomen
	{
		OFFSET 0.000000 3.402643 0.000000 
		CHANNELS 3 Xrotation Zrotation Yrotation
		JOINT chest
		{
			OFFSET 0.000000 8.438565 -0.680529 
			CHANNELS 3 Xrotation Zrotation Yrotation
			JOINT neck
			{
				OFFSET 0.000000 10.207942 -0.272212 
				CHANNELS 3 Xrotation Zrotation Yrotation
				JOINT head
				{
					OFFSET 0.000000 3.130431 0.000000 
					CHANNELS 3 Xrotation Zrotation Yrotation
					End Site
					{
						OFFSET 0.000000 3.130435 0.000000 
					}
				}
			}
			JOINT lCollar
			{
				OFFSET 3.470700 6.669187 -0.816635 
				CHANNELS 3 Yrotation Zrotation Xrotation
				JOINT lShldr
				{
					OFFSET 3.198488 0.000000 0.000000 
					CHANNELS 3 Zrotation Yrotation Xrotation
					JOINT lForeArm
					{
						OFFSET 10.139888 0.000000 0.000000 
						CHANNELS 3 Yrotation Zrotation Xrotation
						JOINT lHand
						{
							OFFSET 8.370511 0.000000 0.000000 
							CHANNELS 3 Zrotation Yrotation Xrotation
							End Site
							{
								OFFSET 4.083176 0.000000 0.000000 
							}
						}
					}
				}
			}
			JOINT rCollar
			{
				OFFSET -3.470700 6.669187 -0.816635 
				CHANNELS 3 Yrotation Zrotation Xrotation
				JOINT rShldr
				{
					OFFSET -3.198488 0.000000 0.000000 
					CHANNELS 3 Zrotation Yrotation Xrotation
					JOINT rForeArm
					{
						OFFSET -10.139888 0.000000 0.000000 
						CHANNELS 3 Yrotation Zrotation Xrotation
						JOINT rHand
						{
							OFFSET -8.370511 0.000000 0.000000 
							CHANNELS 3 Zrotation Yrotation Xrotation
							End Site
							{
								OFFSET -4.083176 0.000000 0.000000 
							}
						}
					}
				}
			}
		}
	}
	JOINT lThigh
	{
		OFFSET 5.308129 -1.633274 1.361059 
		CHANNELS 3 Xrotation Zrotation Yrotation
		JOINT lShin
		{
			OFFSET -2.041588 -20.007561 0.000000 
			CHANNELS 3 Xrotation Zrotation Yrotation
			JOINT lFoot
			{
				OFFSET 0.000000 -19.190928 -1.224953 
				CHANNELS 3 Xrotation Yrotation Zrotation
				End Site
				{
					OFFSET 0.000000 -2.449906 4.627600 
				}
			}
		}
	}
	JOINT rThigh
	{
		OFFSET -5.308129 -1.633274 1.361059 
		CHANNELS 3 Xrotation Zrotation Yrotation
		JOINT rShin
		{
			OFFSET 2.041588 -20.007561 0.000000 
			CHANNELS 3 Xrotation Zrotation Yrotation
			JOINT rFoot
			{
				OFFSET 0.000000 -19.190928 -1.224953 
				CHANNELS 3 Xrotation Yrotation Zrotation
				End Site
				{
					OFFSET 0.000000 -2.449906 4.627600 
				}
			}
		}
	}
}
MOTION
Frames: 15
Frame Time: 0.016667
0.887586 40.374165 0.769637 -10.020000 0.577001 -7.572640 -18.932699 -0.005869 -0.988715 15.701400 1.537430 -0.560220 5.183650 3.648220 0.686651 8.431300 6.524360 0.777512 2.000000 -2.000000 0.000000 3.717460 -31.162600 120.655998 102.060997 -0.184241 0.153055 -179.921997 -179.901993 5.373230 -2.000000 2.000000 0.000000 -16.077200 25.263800 111.626999 -101.661003 0.189190 0.114575 -0.054858 0.012131 -141.257996 -7.784488 5.508630 -6.482910 56.523643 2.234534 3.478272 -23.007088 4.837718 1.448980 -6.341900 -7.013603 25.573711 52.463116 -2.683468 -3.234662 -26.176567 -5.921533 -4.661289 
1.079742 41.148121 0.907292 -9.326200 0.144548 -8.285460 -19.442801 0.414676 -0.757210 15.779900 1.381900 -0.379105 6.413190 3.257000 1.104880 8.911520 6.402190 0.978188 2.000000 -2.000000 0.000000 -1.315210 -29.894600 126.860001 101.153000 -0.186515 0.153523 -179.921997 -179.901993 5.558800 -2.000000 2.000000 0.000000 -12.786900 25.563101 115.303001 -99.726997 0.193400 0.115370 -0.054824 0.011667 -141.091995 -7.059454 5.792179 -5.403531 53.929066 2.419338 3.359574 -21.178522 5.463910 1.712830 -6.244723 -6.692814 26.182653 50.161388 -2.839864 -3.133575 -22.885151 -5.773307 -4.012200 
1.218893 42.211605 0.985143 -8.642580 0.067583 -8.740740 -19.932800 0.728145 -0.700296 15.711200 1.518000 -0.304403 7.073240 2.768830 1.470110 9.243360 6.213450 1.164430 2.000000 -2.000000 0.000000 -7.379770 -28.079500 132.389999 98.867699 -0.192268 0.154539 -179.921005 -179.901001 5.031440 -2.000000 2.000000 0.000000 -8.168370 25.334200 119.241997 -97.099998 0.199157 0.116221 -0.054922 0.012949 -141.550995 -6.405105 5.652308 -5.174332 50.868446 2.664578 3.196890 -17.413601 5.953543 1.771171 -6.143701 -6.430927 27.412992 47.818867 -2.985726 -3.010453 -18.109612 -6.241227 -3.235834 
1.358045 43.274963 1.062992 -7.958980 -0.009672 -9.207630 -20.433001 1.036460 -0.656996 15.632700 1.644300 -0.239236 7.723590 2.262190 1.819570 9.584720 6.014860 1.358370 2.000000 -2.000000 0.000000 -13.110000 -25.766100 137.585999 96.582603 -0.198057 0.155325 -179.919998 -179.899994 4.494330 -2.000000 2.000000 0.000000 -3.599380 24.821501 123.133003 -94.482803 0.204926 0.116806 -0.055031 0.014229 -142.009995 -5.703329 5.512877 -4.938841 47.786190 2.887718 3.018138 -13.670268 6.420319 1.805988 -6.061308 -6.151433 28.642067 45.502098 -3.148108 -2.866501 -13.301328 -6.660480 -2.431943 
1.445625 44.390652 1.111979 -7.314460 0.087175 -9.269000 -20.794399 1.072540 -0.783253 15.720600 1.683440 -0.288832 8.051420 1.982980 2.025260 9.809080 5.895470 1.477570 2.000000 -2.000000 0.000000 -18.641199 -23.142300 141.214005 92.920502 -0.207386 0.156101 -179.906006 -179.884995 2.052950 -2.000000 2.000000 0.000000 1.768570 24.084600 126.445999 -91.016098 0.212598 0.117174 -0.055291 0.016897 -142.966995 -5.000266 5.041223 -5.671621 44.102169 3.122811 2.826415 -8.684678 7.136924 1.778901 -5.922385 -5.837001 29.558184 43.137585 -3.282077 -2.752939 -8.033300 -8.217658 -1.579183 
1.533226 45.506351 1.160967 -6.660190 0.184295 -9.337930 -21.155800 1.104800 -0.919556 15.808400 1.732320 -0.339116 8.389110 1.694330 2.226990 10.033200 5.766370 1.594830 2.000000 -2.000000 0.000000 -23.868500 -20.216200 144.494003 89.258301 -0.216619 0.136750 -179.910995 -179.880005 -0.378699 -2.000000 2.000000 0.000000 7.038130 23.073999 129.656998 -87.539597 0.220718 0.136599 -0.055596 0.019559 -143.923996 -4.266981 4.677307 -6.378928 40.238060 3.324761 2.605616 -3.555221 7.795338 1.656230 -5.799732 -5.510516 30.493078 40.712517 -3.388913 -2.593751 -2.656231 -9.702398 -0.617030 
1.602471 46.452396 1.184371 -5.908200 0.029141 -9.085050 -21.389400 1.083110 -1.116270 16.062901 1.509020 -0.431042 8.366530 1.329550 2.200190 10.139100 5.599930 1.597770 2.000000 -2.000000 0.000000 -28.390200 -17.987200 145.720001 83.867699 -0.229454 0.135981 -179.910004 -179.878006 -1.140410 -2.000000 2.000000 0.000000 12.187700 21.918600 131.671005 -83.164597 0.231121 0.135752 -0.055934 0.022135 -144.850998 -4.206604 4.426105 -7.840036 37.496811 3.428666 2.434232 0.829942 9.733212 1.265867 -5.904620 -4.870226 30.285557 38.714283 -3.444295 -2.505934 0.191769 -8.759114 0.008488 
1.671716 47.398453 1.207775 -5.156270 -0.145892 -8.834490 -21.632500 1.066810 -1.326320 16.317301 1.285540 -0.515181 8.343780 0.975097 2.185060 10.235300 5.443370 1.600220 2.000000 -2.000000 0.000000 -32.804199 -15.670700 146.740997 78.467300 -0.242183 0.134005 -179.908005 -179.876999 -1.902130 -2.000000 2.000000 0.000000 17.249001 20.587400 133.544006 -78.779800 0.241452 0.134111 -0.056317 0.024732 -145.789001 -4.086485 4.171878 -9.283932 34.711700 3.548975 2.271990 5.267529 11.645971 0.736669 -5.988688 -4.232115 30.097689 36.716133 -3.480320 -2.409153 3.003007 -7.799017 0.590246 
1.742074 47.987038 1.140170 -4.550790 -0.116818 -8.750470 -21.778799 0.969320 -1.196790 16.425301 0.896103 -0.445575 7.997690 1.115370 1.927370 10.186800 5.492520 1.483620 2.000000 -2.000000 0.000000 -36.396702 -14.792900 146.171997 71.807198 -0.257535 0.129932 -179.912003 -179.889999 -0.095515 -2.000000 2.000000 0.000000 21.839300 18.808599 134.399994 -74.346199 0.251739 0.131652 -0.057100 0.029314 -147.449005 -4.655346 3.416315 -10.715379 34.090813 3.559399 2.240923 4.696074 13.168949 0.579032 -6.753533 -3.487945 29.144922 36.164429 -3.486703 -2.367635 2.220621 -3.599557 0.424697 
1.812442 48.575626 1.072565 -3.945320 -0.087682 -8.665830 -21.915300 0.881217 -1.070060 16.523300 0.506555 -0.387279 7.641950 1.255910 1.667190 10.138200 5.531960 1.365910 2.000000 -2.000000 0.000000 -39.979401 -13.964100 145.552994 65.156799 -0.272289 0.124117 -179.914993 -179.893997 1.701370 -2.000000 2.000000 0.000000 26.351200 16.961800 135.100006 -69.902901 0.261827 0.128398 -0.058016 0.033872 -149.108994 -5.207882 2.654339 -12.118921 33.457394 3.584269 2.185390 4.135774 14.697616 0.415273 -7.474154 -2.773313 28.216619 35.781654 -3.484695 -2.360735 1.221505 0.567085 0.291347 
1.906795 48.882038 0.987469 -3.750020 0.204639 -8.841540 -21.954901 0.832964 -0.809402 16.367100 0.292186 -0.265543 6.898050 1.147810 1.468220 9.931980 5.515040 1.266000 2.000000 -2.000000 0.000000 -43.609901 -13.302800 144.115997 59.678299 -0.283872 0.118067 -179.917999 -179.897003 3.078320 -2.000000 2.000000 0.000000 30.286900 14.948900 135.770004 -66.709503 0.268906 0.125582 -0.060560 0.044030 -152.848999 -5.697031 1.431824 -12.656092 33.945747 3.535600 2.235672 1.589309 13.997334 0.706084 -8.014770 -2.175723 27.432486 36.305096 -3.455378 -2.375981 0.420423 1.491932 0.361271 
2.001137 49.188324 0.902371 -3.554830 0.506835 -9.006090 -21.994200 0.775731 -0.544915 16.201200 0.068162 -0.141910 6.144510 1.038720 1.271170 9.725630 5.488320 1.174090 2.000000 -2.000000 0.000000 -47.250099 -12.739200 142.641006 54.209499 -0.294805 0.110954 -179.919998 -179.899994 4.445500 -2.000000 2.000000 0.000000 34.154099 12.887500 136.283997 -63.516102 0.275818 0.122375 -0.073536 0.054027 -156.598999 -5.973249 0.347751 -13.178082 33.967583 3.419182 2.240855 -0.708348 13.232399 0.976799 -8.384902 -1.616191 26.646849 36.545563 -3.411444 -2.399176 -0.270339 2.373988 0.394500 
2.073854 49.205467 0.793245 -3.809870 1.481100 -9.317340 -21.797800 0.502137 -0.190292 16.025400 0.077881 -0.015938 5.637430 1.013550 1.229650 9.666880 5.498720 1.169450 2.000000 -2.000000 0.000000 -51.065701 -11.648300 141.164001 51.377399 -0.300186 0.106868 -179.919998 -179.899994 4.377140 -2.000000 2.000000 0.000000 38.080502 10.727700 137.177994 -62.148998 0.278720 0.120885 -0.078188 0.065593 -161.052994 -5.868219 -1.373971 -11.850482 33.792255 3.314500 2.261340 -0.740251 10.120102 0.875009 -8.743878 -1.708129 25.959341 37.521019 -3.290574 -2.487243 -1.371119 1.894880 0.388004 
2.146570 49.222614 0.684117 -4.066270 2.464490 -9.628110 -21.611300 0.227563 0.161942 15.849600 0.077862 0.101011 5.120610 0.988053 1.187880 9.608130 5.509110 1.164780 2.000000 -2.000000 0.000000 -54.891102 -10.664800 139.608002 48.545399 -0.305359 0.102522 -179.919998 -179.899994 4.308780 -2.000000 2.000000 0.000000 41.938499 8.519390 137.906006 -60.791500 0.281566 0.119338 -0.083723 0.086530 -165.505997 -5.825291 -3.102339 -10.561652 33.561016 3.177378 2.283102 -0.677865 6.989863 0.796245 -9.132355 -1.791856 25.260189 38.503254 -3.179402 -2.546639 -2.426240 1.406538 0.388786 
2.190697 48.917362 0.579844 -4.147640 3.331120 -9.742970 -21.376699 -0.118809 0.350580 15.849600 0.000000 0.146484 4.332580 0.876059 1.255500 9.411600 5.482150 1.201880 2.000000 -2.000000 0.000000 -58.796299 -8.614460 139.350006 48.076599 -0.306195 0.101778 -179.919006 -179.888000 3.508030 -2.000000 2.000000 0.000000 46.168499 6.437070 139.162003 -60.703602 0.281749 0.119236 -0.087009 0.092274 -167.869003 -6.121659 -4.504994 -8.593099 33.744335 3.024500 2.344531 0.684081 4.012366 0.744231 -9.521873 -1.708537 24.505913 39.535995 -3.053005 -2.637238 -2.655389 1.244259 0.431305 
